# xmcd CD database file
#
# Track frame offsets:
#	150
#	20046
#	36939
#	51862
#	72940
#	87643
#	102201
#	125898
#	141852
#	161029
#
# Disc length: 2313 seconds
#
# Revision: 1
# Processed by: cddbd v1.5.2PL0 Copyright (c) Steve Scherf et al.
# Submitted via: CDex 1.50beta10
#
DISCID=9509070a
DTITLE=Charlie Daniels Band - Midnight Wind
DYEAR=1977
DGENRE=Southern Rock
TTITLE0=Midnight Wind
TTITLE1=Sugar Hill Saturday Night
TTITLE2=Heaven Can Be Anywhere (Twin Pines Theme)
TTITLE3=Maria Teresa
TTITLE4=Indian Man
TTITLE5=Grapes Of Wrath
TTITLE6=Redneck Fiddlin' Man
TTITLE7=Ode To Sweet Smoky
TTITLE8=Good OIe Boy
TTITLE9=Black Bayou
EXTD=YEAR: 1977
EXTT0=
EXTT1=
EXTT2=
EXTT3=
EXTT4=
EXTT5=
EXTT6=
EXTT7=
EXTT8=
EXTT9=
PLAYORDER=
